<mxfile host="app.diagrams.net" modified="2023-11-08T09:20:07.361Z" agent="Mozilla/5.0 (Windows NT 10.0; Win64; x64; rv:109.0) Gecko/20100101 Firefox/119.0" etag="5WHjeYMpSt37-2xzPuoA" version="22.0.8" type="github">
  <diagram name="Page-1" id="swX_OmcifyCcQ__FE-wy">
    <mxGraphModel dx="1174" dy="701" grid="1" gridSize="10" guides="1" tooltips="1" connect="1" arrows="1" fold="1" page="1" pageScale="1" pageWidth="850" pageHeight="1100" math="0" shadow="0">
      <root>
        <mxCell id="0" />
        <mxCell id="1" parent="0" />
        <mxCell id="JxlkaKrIeEIBKMhmb0Ot-1" value="&lt;div&gt;AZURE Functions&lt;/div&gt;" style="rounded=0;whiteSpace=wrap;html=1;fillColor=#ffe6cc;strokeColor=#d79b00;" vertex="1" parent="1">
          <mxGeometry x="160" y="320" width="240" height="30" as="geometry" />
        </mxCell>
        <mxCell id="JxlkaKrIeEIBKMhmb0Ot-2" value="Central" style="rounded=0;whiteSpace=wrap;html=1;fillColor=#d5e8d4;strokeColor=#82b366;" vertex="1" parent="1">
          <mxGeometry x="160" y="350" width="240" height="30" as="geometry" />
        </mxCell>
        <mxCell id="JxlkaKrIeEIBKMhmb0Ot-3" value="&lt;div&gt;AZURE Functions&lt;/div&gt;" style="rounded=0;whiteSpace=wrap;html=1;fillColor=#ffe6cc;strokeColor=#d79b00;" vertex="1" parent="1">
          <mxGeometry x="520" y="320" width="240" height="30" as="geometry" />
        </mxCell>
        <mxCell id="JxlkaKrIeEIBKMhmb0Ot-4" value="Database" style="rounded=0;whiteSpace=wrap;html=1;fillColor=#dae8fc;strokeColor=#6c8ebf;" vertex="1" parent="1">
          <mxGeometry x="520" y="350" width="240" height="30" as="geometry" />
        </mxCell>
        <mxCell id="JxlkaKrIeEIBKMhmb0Ot-5" value="" style="rounded=0;whiteSpace=wrap;html=1;" vertex="1" parent="1">
          <mxGeometry x="160" y="380" width="240" height="240" as="geometry" />
        </mxCell>
        <mxCell id="JxlkaKrIeEIBKMhmb0Ot-6" value="@Connect" style="rounded=0;whiteSpace=wrap;html=1;fillColor=#e1d5e7;strokeColor=#9673a6;" vertex="1" parent="1">
          <mxGeometry x="180" y="410" width="130" height="20" as="geometry" />
        </mxCell>
        <mxCell id="JxlkaKrIeEIBKMhmb0Ot-8" value="@Disconnect" style="rounded=0;whiteSpace=wrap;html=1;fillColor=#e1d5e7;strokeColor=#9673a6;" vertex="1" parent="1">
          <mxGeometry x="180" y="440" width="130" height="20" as="geometry" />
        </mxCell>
        <mxCell id="JxlkaKrIeEIBKMhmb0Ot-9" value="@Message" style="rounded=0;whiteSpace=wrap;html=1;fillColor=#fff2cc;strokeColor=#d6b656;" vertex="1" parent="1">
          <mxGeometry x="180" y="480" width="130" height="20" as="geometry" />
        </mxCell>
        <mxCell id="JxlkaKrIeEIBKMhmb0Ot-10" value="handle message" style="rounded=0;whiteSpace=wrap;html=1;" vertex="1" parent="1">
          <mxGeometry x="180" y="500" width="130" height="60" as="geometry" />
        </mxCell>
        <mxCell id="JxlkaKrIeEIBKMhmb0Ot-11" value="" style="rounded=0;whiteSpace=wrap;html=1;" vertex="1" parent="1">
          <mxGeometry x="520" y="380" width="240" height="240" as="geometry" />
        </mxCell>
        <mxCell id="JxlkaKrIeEIBKMhmb0Ot-12" style="edgeStyle=orthogonalEdgeStyle;rounded=0;orthogonalLoop=1;jettySize=auto;html=1;exitX=1;exitY=0.5;exitDx=0;exitDy=0;entryX=-0.021;entryY=0.625;entryDx=0;entryDy=0;entryPerimeter=0;" edge="1" parent="1" source="JxlkaKrIeEIBKMhmb0Ot-10" target="JxlkaKrIeEIBKMhmb0Ot-11">
          <mxGeometry relative="1" as="geometry" />
        </mxCell>
        <mxCell id="JxlkaKrIeEIBKMhmb0Ot-13" value="http request" style="rounded=0;whiteSpace=wrap;html=1;" vertex="1" parent="1">
          <mxGeometry x="410" y="485" width="90" height="30" as="geometry" />
        </mxCell>
        <mxCell id="JxlkaKrIeEIBKMhmb0Ot-14" value="@Table1 querry1" style="rounded=0;whiteSpace=wrap;html=1;fillColor=#fff2cc;strokeColor=#d6b656;" vertex="1" parent="1">
          <mxGeometry x="590" y="440" width="130" height="20" as="geometry" />
        </mxCell>
        <mxCell id="JxlkaKrIeEIBKMhmb0Ot-15" value="@Table1 querry2" style="rounded=0;whiteSpace=wrap;html=1;fillColor=#fff2cc;strokeColor=#d6b656;" vertex="1" parent="1">
          <mxGeometry x="591" y="470" width="130" height="20" as="geometry" />
        </mxCell>
        <mxCell id="JxlkaKrIeEIBKMhmb0Ot-19" value="@Table2 querry1" style="rounded=0;whiteSpace=wrap;html=1;fillColor=#fff2cc;strokeColor=#d6b656;" vertex="1" parent="1">
          <mxGeometry x="591" y="500" width="130" height="20" as="geometry" />
        </mxCell>
        <mxCell id="JxlkaKrIeEIBKMhmb0Ot-20" value="@Table2 querry2" style="rounded=0;whiteSpace=wrap;html=1;fillColor=#fff2cc;strokeColor=#d6b656;" vertex="1" parent="1">
          <mxGeometry x="591" y="530" width="130" height="20" as="geometry" />
        </mxCell>
        <mxCell id="JxlkaKrIeEIBKMhmb0Ot-21" value="" style="endArrow=classic;html=1;rounded=0;entryX=1;entryY=0.75;entryDx=0;entryDy=0;exitX=-0.005;exitY=0.696;exitDx=0;exitDy=0;exitPerimeter=0;" edge="1" parent="1" source="JxlkaKrIeEIBKMhmb0Ot-11" target="JxlkaKrIeEIBKMhmb0Ot-10">
          <mxGeometry width="50" height="50" relative="1" as="geometry">
            <mxPoint x="470" y="590" as="sourcePoint" />
            <mxPoint x="530" y="520" as="targetPoint" />
          </mxGeometry>
        </mxCell>
        <mxCell id="JxlkaKrIeEIBKMhmb0Ot-24" value="DB" style="shape=cylinder3;whiteSpace=wrap;html=1;boundedLbl=1;backgroundOutline=1;size=15;fillColor=#dae8fc;strokeColor=#6c8ebf;" vertex="1" parent="1">
          <mxGeometry x="585" y="680" width="110" height="80" as="geometry" />
        </mxCell>
        <mxCell id="JxlkaKrIeEIBKMhmb0Ot-26" value="" style="endArrow=classic;html=1;rounded=0;" edge="1" parent="1">
          <mxGeometry width="50" height="50" relative="1" as="geometry">
            <mxPoint x="620" y="620" as="sourcePoint" />
            <mxPoint x="620" y="680" as="targetPoint" />
          </mxGeometry>
        </mxCell>
        <mxCell id="JxlkaKrIeEIBKMhmb0Ot-29" value="" style="endArrow=classic;html=1;rounded=0;" edge="1" parent="1">
          <mxGeometry width="50" height="50" relative="1" as="geometry">
            <mxPoint x="649.66" y="680" as="sourcePoint" />
            <mxPoint x="649.66" y="620" as="targetPoint" />
          </mxGeometry>
        </mxCell>
        <mxCell id="JxlkaKrIeEIBKMhmb0Ot-30" value="Pub Sub" style="rounded=1;whiteSpace=wrap;html=1;fillColor=#fff2cc;strokeColor=#d6b656;" vertex="1" parent="1">
          <mxGeometry x="220" y="200" width="120" height="60" as="geometry" />
        </mxCell>
        <mxCell id="JxlkaKrIeEIBKMhmb0Ot-33" value="" style="shape=flexArrow;endArrow=classic;startArrow=classic;html=1;rounded=0;exitX=0.5;exitY=0;exitDx=0;exitDy=0;" edge="1" parent="1" source="JxlkaKrIeEIBKMhmb0Ot-30">
          <mxGeometry width="100" height="100" relative="1" as="geometry">
            <mxPoint x="180" y="220" as="sourcePoint" />
            <mxPoint x="280" y="120" as="targetPoint" />
          </mxGeometry>
        </mxCell>
        <mxCell id="JxlkaKrIeEIBKMhmb0Ot-35" value="Charging Station" style="rounded=0;whiteSpace=wrap;html=1;fillColor=#d5e8d4;strokeColor=#82b366;" vertex="1" parent="1">
          <mxGeometry x="220" y="60" width="120" height="60" as="geometry" />
        </mxCell>
        <mxCell id="JxlkaKrIeEIBKMhmb0Ot-36" value="" style="endArrow=classic;html=1;rounded=0;exitX=0.409;exitY=1.05;exitDx=0;exitDy=0;exitPerimeter=0;" edge="1" parent="1" source="JxlkaKrIeEIBKMhmb0Ot-30">
          <mxGeometry width="50" height="50" relative="1" as="geometry">
            <mxPoint x="269.65999999999997" y="270" as="sourcePoint" />
            <mxPoint x="270" y="320" as="targetPoint" />
          </mxGeometry>
        </mxCell>
        <mxCell id="JxlkaKrIeEIBKMhmb0Ot-37" value="" style="endArrow=classic;html=1;rounded=0;exitX=0.541;exitY=-0.107;exitDx=0;exitDy=0;exitPerimeter=0;entryX=0.581;entryY=1.016;entryDx=0;entryDy=0;entryPerimeter=0;" edge="1" parent="1" source="JxlkaKrIeEIBKMhmb0Ot-1" target="JxlkaKrIeEIBKMhmb0Ot-30">
          <mxGeometry width="50" height="50" relative="1" as="geometry">
            <mxPoint x="310" y="310" as="sourcePoint" />
            <mxPoint x="289.65999999999997" y="270" as="targetPoint" />
          </mxGeometry>
        </mxCell>
        <mxCell id="JxlkaKrIeEIBKMhmb0Ot-38" value="web socket" style="rounded=0;whiteSpace=wrap;html=1;" vertex="1" parent="1">
          <mxGeometry x="140" y="150" width="120" height="20" as="geometry" />
        </mxCell>
        <mxCell id="JxlkaKrIeEIBKMhmb0Ot-39" value="http trigger" style="rounded=0;whiteSpace=wrap;html=1;" vertex="1" parent="1">
          <mxGeometry x="140" y="280" width="120" height="20" as="geometry" />
        </mxCell>
      </root>
    </mxGraphModel>
  </diagram>
</mxfile>
